                                                                        S      1
,,6HAxle 2,13Hencoder_mesa5,7Hunknown,7Hunknown,32,38,7,99,15,,1.,2,2HMMG      1
,1,0.08,15H20230720.194721,0.01,10000.,7Hunknown,7Hunknown,11,0,;       G      2
     186       1                                                00000000D      1
     186            -131       1       0                               0D      2
     514       2                                                00010000D      3
     514                       1       1                               0D      4
     510       3                                                00010000D      5
     510            -131       1       1                               0D      6
     510       4                                                00010000D      7
     510            -131       1       1                               0D      8
     510       5                                                00010000D      9
     510            -131       1       1                               0D     10
     510       6                                                00010000D     11
     510            -131       1       1                               0D     12
     510       7                                                00010000D     13
     510            -131       1       1                               0D     14
     510       8                                                00010000D     15
     510            -131       1       1                               0D     16
     510       9                                                00010000D     17
     510            -131       1       1                               0D     18
     510      10                                                00010000D     19
     510            -131       1       1                               0D     20
     510      11                                                00010000D     21
     510            -131       1       1                               0D     22
     510      12                                                00010000D     23
     510            -131       1       1                               0D     24
     510      13                                                00010000D     25
     510            -131       1       1                               0D     26
     510      14                                                00010000D     27
     510            -131       1       1                               0D     28
     508      15                                                00010000D     29
     508                       1       1                               0D     30
     508      16                                                00010000D     31
     508                       1       1                               0D     32
     508      17                                                00010000D     33
     508                       1       1                               0D     34
     508      18                                                00010000D     35
     508                       2       1                               0D     36
     508      20                                                00010000D     37
     508                       1       1                               0D     38
     508      21                                                00010000D     39
     508                       1       1                               0D     40
     508      22                                                00010000D     41
     508                       1       1                               0D     42
     508      23                                                00010000D     43
     508                       1       1                               0D     44
     508      24                                                00010000D     45
     508                       1       1                               0D     46
     508      25                                                00010000D     47
     508                       1       1                               0D     48
     508      26                                                00010000D     49
     508                       1       1                               0D     50
     508      27                                                00010000D     51
     508                       1       1                               0D     52
     508      28                                                00010000D     53
     508                       1       1                               0D     54
     508      29                                                00010000D     55
     508                       1       1                               0D     56
     508      30                                                00010000D     57
     508                       1       1                               0D     58
     508      31                                                00010000D     59
     508                       1       1                               0D     60
     126      32                                                00010000D     61
     126       0               4       0                               0D     62
     126      36                                                00010000D     63
     126       0               3       0                               0D     64
     126      39                                                00010000D     65
     126       0               4       0                               0D     66
     126      43                                                00010000D     67
     126       0               3       0                               0D     68
     126      46                                                00010000D     69
     126       0              10       0                               0D     70
     126      56                                                00010000D     71
     126       0              10       0                               0D     72
     126      66                                                00010000D     73
     126       0               6       0                               0D     74
     126      72                                                00010000D     75
     126       0               8       0                               0D     76
     126      80                                                00010000D     77
     126       0               4       0                               0D     78
     126      84                                                00010000D     79
     126       0               6       0                               0D     80
     126      90                                                00010000D     81
     126       0               8       0                               0D     82
     126      98                                                00010000D     83
     126       0              12       0                               0D     84
     126     110                                                00010000D     85
     126       0              12       0                               0D     86
     126     122                                                00010000D     87
     126       0              11       0                               0D     88
     126     133                                                00010000D     89
     126       0               3       0                               0D     90
     126     136                                                00010000D     91
     126       0              12       0                               0D     92
     126     148                                                00010000D     93
     126       0               3       0                               0D     94
     126     151                                                00010000D     95
     126       0              12       0                               0D     96
     126     163                                                00010000D     97
     126       0               2       0                               0D     98
     126     165                                                00010000D     99
     126       0              11       0                               0D    100
     128     176                                                00010000D    101
     128       0    -131       6       0                               0D    102
     128     182                                                00010000D    103
     128       0    -131      16       0                               0D    104
     128     198                                                00010000D    105
     128       0    -131       7       0                               0D    106
     128     205                                                00010000D    107
     128       0    -131      19       0                               0D    108
     128     224                                                00010000D    109
     128       0    -131       7       0                               0D    110
     128     231                                                00010000D    111
     128       0    -131      20       0                               0D    112
     128     251                                                00010000D    113
     128       0    -131       5       0                               0D    114
     128     256                                                00010000D    115
     128       0    -131      20       0                               0D    116
     128     276                                                00010000D    117
     128       0    -131       7       0                               0D    118
     128     283                                                00010000D    119
     128       0    -131      17       0                               0D    120
     128     300                                                00010000D    121
     128       0    -131       4       0                               0D    122
     128     304                                                00010000D    123
     128       0    -131       7       0                               0D    124
     502     311                                                00010000D    125
     502                       8       1                               0D    126
     504     319                                                00010001D    127
     504                       6       1                               0D    128
     406     325                                                00000000D    129
     406                       1      15                               0D    130
     314     326                                                00000200D    131
     314                       2       0                               0D    132
186,3,1,0,0,1,129;                                                     1P      1
514,12,5,1,7,1,9,1,11,1,13,1,15,1,17,1,19,1,21,1,23,1,25,1,27,1;       3P      2
510,101,1,1,29;                                                        5P      3
510,103,1,1,31;                                                        7P      4
510,105,1,1,33;                                                        9P      5
510,107,1,1,35;                                                       11P      6
510,109,4,1,37,39,41,43;                                              13P      7
510,111,1,1,45;                                                       15P      8
510,113,1,1,47;                                                       17P      9
510,115,1,1,49;                                                       19P     10
510,117,1,1,51;                                                       21P     11
510,119,1,1,53;                                                       23P     12
510,121,1,1,55;                                                       25P     13
510,123,2,1,57,59;                                                    27P     14
508,4,0,127,1,0,0,0,127,2,0,0,0,127,3,1,0,0,127,4,0,0;                29P     15
508,4,0,127,2,1,0,0,127,5,1,0,0,127,4,1,0,0,127,6,0,0;                31P     16
508,2,0,127,1,1,0,0,127,5,0,0;                                        33P     17
508,6,0,127,7,0,0,0,127,8,0,0,0,127,9,1,0,0,127,10,0,0,0,127,11,      35P     18
0,0,0,127,9,0,0;                                                      35P     19
508,2,0,127,10,1,0,0,127,11,1,0;                                      37P     20
508,1,0,127,12,0,0;                                                   39P     21
508,1,0,127,13,0,0;                                                   41P     22
508,1,0,127,14,0,0;                                                   43P     23
508,4,0,127,12,1,0,0,127,15,1,0,0,127,16,0,0,0,127,15,0,0;            45P     24
508,1,0,127,16,1,0;                                                   47P     25
508,4,0,127,13,1,0,0,127,17,1,0,0,127,18,0,0,0,127,17,0,0;            49P     26
508,1,0,127,18,1,0;                                                   51P     27
508,4,0,127,14,1,0,0,127,19,1,0,0,127,20,0,0,0,127,19,0,0;            53P     28
508,1,0,127,20,1,0;                                                   55P     29
508,2,0,127,7,1,0,0,127,8,1,0;                                        57P     30
508,2,0,127,6,1,0,0,127,3,0,0;                                        59P     31
126,1,1,0,0,1,0,-0.116231686144839,-0.116231686144839,                61P     32
0.339838483894815,0.339838483894815,1.,1.,2.28035085019828,77.1,      61P     33
56.,-2.28035085019826,77.1,56.,-0.116231686144839,                    61P     34
0.339838483894815,0.,0.,0.;                                           61P     35
126,1,1,0,0,1,0,0.,0.,0.400000000000001,0.400000000000001,1.,1.,      63P     36
2.28035085019827,77.1,60.,2.28035085019827,77.1,56.,0.,               63P     37
0.400000000000001,0.,0.,0.;                                           63P     38
126,1,1,0,0,1,0,0.681901643212096,0.681901643212096,                  65P     39
1.13797181325175,1.13797181325175,1.,1.,2.28035085019827,77.1,        65P     40
60.,-2.28035085019827,77.1,60.,0.681901643212096,                     65P     41
1.13797181325175,0.,0.,0.;                                            65P     42
126,1,1,0,0,1,0,-0.400000000000001,-0.400000000000001,0.,0.,1.,       67P     43
1.,-2.28035085019827,77.1,56.,-2.28035085019827,77.1,60.,             67P     44
-0.400000000000001,0.,0.,0.,0.;                                       67P     45
126,6,2,0,0,0,0,2.3973439437838,2.3973439437838,2.3973439437838,      69P     46
3.94070730151773,3.94070730151773,5.48407065925165,                   69P     47
5.48407065925165,7.02743401698558,7.02743401698558,                   69P     48
7.02743401698558,1.,0.716738979102208,1.,0.716738979102214,1.,        69P     49
0.716738979102208,1.,2.28035085019827,77.1,56.,4.32351760323901,      69P     50
74.8813633131461,56.,2.1617588016195,72.7781091647831,56.,            69P     51
-3.05311331771918D-15,70.6748550164202,56.,-2.1617588016195,          69P     52
72.7781091647831,56.,-4.32351760323901,74.8813633131461,56.,          69P     53
-2.28035085019827,77.1,56.,2.3973439437838,7.02743401698558,0.,       69P     54
0.,0.;                                                                69P     55
126,6,2,0,0,0,0,2.3973439437838,2.3973439437838,2.3973439437838,      71P     56
3.94070730151773,3.94070730151773,5.48407065925165,                   71P     57
5.48407065925165,7.02743401698558,7.02743401698558,                   71P     58
7.02743401698558,1.,0.716738979102208,1.,0.716738979102214,1.,        71P     59
0.716738979102208,1.,2.28035085019827,77.1,60.,4.32351760323901,      71P     60
74.8813633131461,60.,2.1617588016195,72.7781091647831,60.,            71P     61
-3.05311331771918D-15,70.6748550164202,60.,-2.1617588016195,          71P     62
72.7781091647831,60.,-4.32351760323901,74.8813633131461,60.,          71P     63
-2.28035085019827,77.1,60.,2.3973439437838,7.02743401698558,0.,       71P     64
0.,0.;                                                                71P     65
126,4,2,0,0,0,0,0.,0.,0.,1.5707963267949,1.5707963267949,             73P     66
3.14159265358979,3.14159265358979,3.14159265358979,1.,                73P     67
0.707106781186548,1.,0.707106781186548,1.,23.1551999045664,75.,       73P     68
60.,23.1551999045664,98.1551999045664,60.,1.41784707233722D-15,       73P     69
98.1551999045664,60.,-23.1551999045664,98.1551999045664,60.,          73P     70
-23.1551999045664,75.,60.,0.,3.14159265358979,0.,0.,0.;               73P     71
126,4,2,0,0,0,0,3.14159265358979,3.14159265358979,                    75P     72
3.14159265358979,4.71238898038469,4.71238898038469,                   75P     73
6.28318530717959,6.28318530717959,6.28318530717959,1.,                75P     74
0.707106781186547,1.,0.707106781186548,1.,-23.1551999045664,75.,      75P     75
60.,-23.1551999045664,51.8448000954336,60.,                           75P     76
-4.25354121701165D-15,51.8448000954336,60.,23.1551999045664,          75P     77
51.8448000954336,60.,23.1551999045664,75.,60.,3.14159265358979,       75P     78
6.28318530717959,0.,0.,0.;                                            75P     79
126,1,1,0,0,1,0,-0.107967109344929,-0.107967109344929,                77P     80
0.107967109344929,0.107967109344929,1.,1.,-23.1551999045664,75.,      77P     81
60.,-23.1551999045664,75.,55.,-0.107967109344929,                     77P     82
0.107967109344929,0.,0.,0.;                                           77P     83
126,4,2,0,0,0,0,0.,0.,0.,1.5707963267949,1.5707963267949,             79P     84
3.14159265358979,3.14159265358979,3.14159265358979,1.,                79P     85
0.707106781186548,1.,0.707106781186548,1.,23.1551999045664,75.,       79P     86
55.,23.1551999045664,51.8448000954336,55.,1.41784707233722D-15,       79P     87
51.8448000954336,55.,-23.1551999045664,51.8448000954336,55.,          79P     88
-23.1551999045664,75.,55.,0.,3.14159265358979,0.,0.,0.;               79P     89
126,4,2,0,0,0,0,3.14159265358979,3.14159265358979,                    81P     90
3.14159265358979,4.71238898038469,4.71238898038469,                   81P     91
6.28318530717959,6.28318530717959,6.28318530717959,1.,                81P     92
0.707106781186548,1.,0.707106781186548,1.,-23.1551999045664,75.,      81P     93
55.,-23.1551999045664,98.1551999045664,55.,                           81P     94
-4.25354121701165D-15,98.1551999045664,55.,23.1551999045664,          81P     95
98.1551999045664,55.,23.1551999045664,75.,55.,3.14159265358979,       81P     96
6.28318530717959,0.,0.,0.;                                            81P     97
126,8,2,0,1,0,0,-3.14159265358979,-3.14159265358979,                  83P     98
-3.14159265358979,-1.5707963267949,-1.5707963267949,0.,0.,            83P     99
1.5707963267949,1.5707963267949,3.14159265358979,                     83P    100
3.14159265358979,3.14159265358979,1.,0.707106781186548,1.,            83P    101
0.707106781186547,1.,0.707106781186547,1.,0.707106781186548,1.,       83P    102
-11.7813332935693,61.1759252233969,55.,-11.7813332935693,             83P    103
64.9759252233969,55.,-7.98133329356935,64.9759252233969,55.,          83P    104
-4.18133329356935,64.9759252233969,55.,-4.18133329356935,             83P    105
61.1759252233969,55.,-4.18133329356935,57.3759252233969,55.,          83P    106
-7.98133329356935,57.3759252233969,55.,-11.7813332935693,             83P    107
57.3759252233969,55.,-11.7813332935693,61.1759252233969,55.,          83P    108
-3.14159265358979,3.14159265358979,0.,0.,0.;                          83P    109
126,8,2,0,1,0,0,-3.14159265358979,-3.14159265358979,                  85P    110
-3.14159265358979,-1.5707963267949,-1.5707963267949,0.,0.,            85P    111
1.5707963267949,1.5707963267949,3.14159265358979,                     85P    112
3.14159265358979,3.14159265358979,1.,0.707106781186541,1.,            85P    113
0.707106781186542,1.,0.707106781186542,1.,0.707106781186541,1.,       85P    114
-11.7813332935693,88.8240747766031,55.,-11.7813332935693,             85P    115
92.6240747766032,55.,-7.98133329356934,92.6240747766032,55.,          85P    116
-4.18133329356934,92.6240747766032,55.,-4.18133329356934,             85P    117
88.8240747766031,55.,-4.18133329356934,85.0240747766031,55.,          85P    118
-7.98133329356934,85.0240747766031,55.,-11.7813332935693,             85P    119
85.0240747766031,55.,-11.7813332935693,88.8240747766031,55.,          85P    120
-3.14159265358979,3.14159265358979,0.,0.,0.;                          85P    121
126,8,2,0,1,0,0,-3.14159265358979,-3.14159265358979,                  87P    122
-3.14159265358979,-1.5707963267949,-1.5707963267949,0.,0.,            87P    123
1.5707963267949,1.5707963267949,3.14159265358979,                     87P    124
3.14159265358979,3.14159265358979,1.,0.707106781186548,1.,            87P    125
0.707106781186548,1.,0.707106781186548,1.,0.707106781186548,1.,       87P    126
12.1626665871387,75.,55.,12.1626665871387,78.8,55.,                   87P    127
15.9626665871387,78.8,55.,19.7626665871387,78.8,55.,                  87P    128
19.7626665871387,75.,55.,19.7626665871387,71.2,55.,                   87P    129
15.9626665871387,71.2,55.,12.1626665871387,71.2,55.,                  87P    130
12.1626665871387,75.,55.,-3.14159265358979,3.14159265358979,0.,       87P    131
0.,0.;                                                                87P    132
126,1,1,0,0,1,0,-2.5,-2.5,2.5,2.5,1.,1.,-11.7813332935693,            89P    133
61.1759252233969,55.,-11.7813332935693,61.1759252233969,35.,          89P    134
-2.5,2.5,0.,0.,0.;                                                    89P    135
126,8,2,0,1,0,0,-3.14159265358979,-3.14159265358979,                  91P    136
-3.14159265358979,-1.5707963267949,-1.5707963267949,0.,0.,            91P    137
1.5707963267949,1.5707963267949,3.14159265358979,                     91P    138
3.14159265358979,3.14159265358979,1.,0.707106781186548,1.,            91P    139
0.707106781186547,1.,0.707106781186547,1.,0.707106781186548,1.,       91P    140
-11.7813332935693,61.1759252233969,35.,-11.7813332935693,             91P    141
64.9759252233969,35.,-7.98133329356935,64.9759252233969,35.,          91P    142
-4.18133329356935,64.9759252233969,35.,-4.18133329356935,             91P    143
61.1759252233969,35.,-4.18133329356935,57.3759252233969,35.,          91P    144
-7.98133329356935,57.3759252233969,35.,-11.7813332935693,             91P    145
57.3759252233969,35.,-11.7813332935693,61.1759252233969,35.,          91P    146
-3.14159265358979,3.14159265358979,0.,0.,0.;                          91P    147
126,1,1,0,0,1,0,-2.5,-2.5,2.5,2.5,1.,1.,-11.7813332935693,            93P    148
88.8240747766031,55.,-11.7813332935693,88.8240747766031,35.,          93P    149
-2.5,2.5,0.,0.,0.;                                                    93P    150
126,8,2,0,1,0,0,-3.14159265358979,-3.14159265358979,                  95P    151
-3.14159265358979,-1.5707963267949,-1.5707963267949,0.,0.,            95P    152
1.5707963267949,1.5707963267949,3.14159265358979,                     95P    153
3.14159265358979,3.14159265358979,1.,0.707106781186541,1.,            95P    154
0.707106781186542,1.,0.707106781186542,1.,0.707106781186541,1.,       95P    155
-11.7813332935693,88.8240747766031,35.,-11.7813332935693,             95P    156
92.6240747766032,35.,-7.98133329356934,92.6240747766032,35.,          95P    157
-4.18133329356934,92.6240747766032,35.,-4.18133329356934,             95P    158
88.8240747766031,35.,-4.18133329356934,85.0240747766031,35.,          95P    159
-7.98133329356934,85.0240747766031,35.,-11.7813332935693,             95P    160
85.0240747766031,35.,-11.7813332935693,88.8240747766031,35.,          95P    161
-3.14159265358979,3.14159265358979,0.,0.,0.;                          95P    162
126,1,1,0,0,1,0,-2.5,-2.5,2.5,2.5,1.,1.,12.1626665871387,75.,         97P    163
55.,12.1626665871387,75.,35.,-2.5,2.5,0.,0.,0.;                       97P    164
126,8,2,0,1,0,0,-3.14159265358979,-3.14159265358979,                  99P    165
-3.14159265358979,-1.5707963267949,-1.5707963267949,0.,0.,            99P    166
1.5707963267949,1.5707963267949,3.14159265358979,                     99P    167
3.14159265358979,3.14159265358979,1.,0.707106781186548,1.,            99P    168
0.707106781186548,1.,0.707106781186548,1.,0.707106781186548,1.,       99P    169
12.1626665871387,75.,35.,12.1626665871387,78.8,35.,                   99P    170
15.9626665871387,78.8,35.,19.7626665871387,78.8,35.,                  99P    171
19.7626665871387,75.,35.,19.7626665871387,71.2,35.,                   99P    172
15.9626665871387,71.2,35.,12.1626665871387,71.2,35.,                  99P    173
12.1626665871387,75.,35.,-3.14159265358979,3.14159265358979,0.,       99P    174
0.,0.;                                                                99P    175
128,1,1,1,1,0,0,1,0,0,-0.00542828726984948,-0.00542828726984948,     101P    176
0.452641882769805,0.452641882769805,-0.001,-0.001,                   101P    177
0.401000000000001,0.401000000000001,1.,1.,1.,1.,                     101P    178
2.29035085019828,77.1,60.01,-2.29035085019827,77.1,60.01,            101P    179
2.29035085019828,77.1,55.99,-2.29035085019827,77.1,55.99,            101P    180
-0.00542828726984948,0.452641882769805,-0.001,0.401000000000001;     101P    181
128,1,6,1,2,0,0,0,0,0,0.,0.,0.974421437271623,0.974421437271623,     103P    182
2.3973439437838,2.3973439437838,2.3973439437838,                     103P    183
3.94070730151773,3.94070730151773,5.48407065925165,                  103P    184
5.48407065925165,7.02743401698558,7.02743401698558,                  103P    185
7.02743401698558,1.,1.,0.716738979102208,0.716738979102208,1.,       103P    186
1.,0.716738979102208,0.716738979102208,1.,1.,0.716738979102208,      103P    187
0.716738979102208,1.,1.,2.28035085019827,77.1,60.,                   103P    188
2.28035085019827,77.1,56.,4.32351760323901,74.8813633131461,60.,     103P    189
4.32351760323901,74.8813633131461,56.,2.1617588016195,               103P    190
72.7781091647831,60.,2.1617588016195,72.7781091647831,56.,0.,        103P    191
70.6748550164202,60.,0.,70.6748550164202,56.,-2.1617588016195,       103P    192
72.7781091647831,60.,-2.1617588016195,72.7781091647831,56.,          103P    193
-4.32351760323901,74.8813633131461,60.,-4.32351760323901,            103P    194
74.8813633131461,56.,-2.28035085019827,77.1,60.,                     103P    195
-2.28035085019827,77.1,56.,0.,0.974421437271623,2.3973439437838,     103P    196
7.02743401698558;                                                    103P    197
128,1,1,1,1,0,0,1,0,0,-0.433351760323901,-0.433351760323901,         105P    198
0.433351760323901,0.433351760323901,-0.211000000000001,              105P    199
-0.211000000000001,0.433514498357977,0.433514498357977,1.,1.,1.,     105P    200
1.,4.33351760323901,77.11,56.,-4.33351760323901,77.11,56.,           105P    201
4.33351760323901,70.6648550164202,56.,-4.33351760323901,             105P    202
70.6648550164202,56.,-0.433351760323901,0.433351760323901,           105P    203
-0.211000000000001,0.433514498357977;                                105P    204
128,1,8,1,2,0,1,0,0,1,-0.107967109344929,-0.107967109344929,         107P    205
0.107967109344929,0.107967109344929,-3.14159265358979,               107P    206
-3.14159265358979,-3.14159265358979,-1.5707963267949,                107P    207
-1.5707963267949,0.,0.,1.5707963267949,1.5707963267949,              107P    208
3.14159265358979,3.14159265358979,3.14159265358979,1.,1.,            107P    209
0.707106781186548,0.707106781186548,1.,1.,0.707106781186548,         107P    210
0.707106781186548,1.,1.,0.707106781186548,0.707106781186548,1.,      107P    211
1.,0.707106781186548,0.707106781186548,1.,1.,-23.1551999045664,      107P    212
75.,60.,-23.1551999045664,75.,55.,-23.1551999045664,                 107P    213
51.8448000954336,60.,-23.1551999045664,51.8448000954336,55.,0.,      107P    214
51.8448000954336,60.,0.,51.8448000954336,55.,23.1551999045664,       107P    215
51.8448000954336,60.,23.1551999045664,51.8448000954336,55.,          107P    216
23.1551999045664,75.,60.,23.1551999045664,75.,55.,                   107P    217
23.1551999045664,98.1551999045664,60.,23.1551999045664,              107P    218
98.1551999045664,55.,0.,98.1551999045664,60.,0.,                     107P    219
98.1551999045664,55.,-23.1551999045664,98.1551999045664,60.,         107P    220
-23.1551999045664,98.1551999045664,55.,-23.1551999045664,75.,        107P    221
60.,-23.1551999045664,75.,55.,-0.107967109344929,                    107P    222
0.107967109344929,-3.14159265358979,3.14159265358979;                107P    223
128,1,1,1,1,0,0,1,0,0,-2.31651999045664,-2.31651999045664,           109P    224
2.31651999045664,2.31651999045664,-2.31651999045664,                 109P    225
-2.31651999045664,2.31651999045664,2.31651999045664,1.,1.,1.,1.,     109P    226
23.1651999045664,51.8348000954336,55.,-23.1651999045664,             109P    227
51.8348000954336,55.,23.1651999045664,98.1651999045664,55.,          109P    228
-23.1651999045664,98.1651999045664,55.,-2.31651999045664,            109P    229
2.31651999045664,-2.31651999045664,2.31651999045664;                 109P    230
128,1,8,1,2,0,1,0,0,1,-2.5,-2.5,2.5,2.5,-3.14159265358979,           111P    231
-3.14159265358979,-3.14159265358979,-1.5707963267949,                111P    232
-1.5707963267949,0.,0.,1.5707963267949,1.5707963267949,              111P    233
3.14159265358979,3.14159265358979,3.14159265358979,1.,1.,            111P    234
0.707106781186548,0.707106781186548,1.,1.,0.707106781186548,         111P    235
0.707106781186548,1.,1.,0.707106781186548,0.707106781186548,1.,      111P    236
1.,0.707106781186548,0.707106781186548,1.,1.,-11.7813332935693,      111P    237
61.1759252233969,55.,-11.7813332935693,61.1759252233969,35.,         111P    238
-11.7813332935693,57.3759252233969,55.,-11.7813332935693,            111P    239
57.3759252233969,35.,-7.98133329356935,57.3759252233969,55.,         111P    240
-7.98133329356935,57.3759252233969,35.,-4.18133329356935,            111P    241
57.3759252233969,55.,-4.18133329356935,57.3759252233969,35.,         111P    242
-4.18133329356935,61.1759252233969,55.,-4.18133329356935,            111P    243
61.1759252233969,35.,-4.18133329356935,64.9759252233969,55.,         111P    244
-4.18133329356935,64.9759252233969,35.,-7.98133329356935,            111P    245
64.9759252233969,55.,-7.98133329356935,64.9759252233969,35.,         111P    246
-11.7813332935693,64.9759252233969,55.,-11.7813332935693,            111P    247
64.9759252233969,35.,-11.7813332935693,61.1759252233969,55.,         111P    248
-11.7813332935693,61.1759252233969,35.,-2.5,2.5,                     111P    249
-3.14159265358979,3.14159265358979;                                  111P    250
128,1,1,1,1,0,0,1,0,0,-0.381,-0.381,0.381,0.381,-0.381,-0.381,       113P    251
0.381,0.381,1.,1.,1.,1.,-4.17133329356935,57.3659252233969,35.,      113P    252
-11.7913332935693,57.3659252233969,35.,-4.17133329356935,            113P    253
64.9859252233969,35.,-11.7913332935693,64.9859252233969,35.,         113P    254
-0.381,0.381,-0.381,0.381;                                           113P    255
128,1,8,1,2,0,1,0,0,1,-2.5,-2.5,2.5,2.5,-3.14159265358979,           115P    256
-3.14159265358979,-3.14159265358979,-1.5707963267949,                115P    257
-1.5707963267949,0.,0.,1.5707963267949,1.5707963267949,              115P    258
3.14159265358979,3.14159265358979,3.14159265358979,1.,1.,            115P    259
0.707106781186548,0.707106781186548,1.,1.,0.707106781186548,         115P    260
0.707106781186548,1.,1.,0.707106781186548,0.707106781186548,1.,      115P    261
1.,0.707106781186548,0.707106781186548,1.,1.,-11.7813332935693,      115P    262
88.8240747766031,55.,-11.7813332935693,88.8240747766031,35.,         115P    263
-11.7813332935693,85.0240747766031,55.,-11.7813332935693,            115P    264
85.0240747766031,35.,-7.98133329356934,85.0240747766031,55.,         115P    265
-7.98133329356934,85.0240747766031,35.,-4.18133329356934,            115P    266
85.0240747766031,55.,-4.18133329356934,85.0240747766031,35.,         115P    267
-4.18133329356934,88.8240747766031,55.,-4.18133329356934,            115P    268
88.8240747766031,35.,-4.18133329356934,92.6240747766032,55.,         115P    269
-4.18133329356934,92.6240747766032,35.,-7.98133329356934,            115P    270
92.6240747766032,55.,-7.98133329356934,92.6240747766032,35.,         115P    271
-11.7813332935693,92.6240747766032,55.,-11.7813332935693,            115P    272
92.6240747766032,35.,-11.7813332935693,88.8240747766031,55.,         115P    273
-11.7813332935693,88.8240747766031,35.,-2.5,2.5,                     115P    274
-3.14159265358979,3.14159265358979;                                  115P    275
128,1,1,1,1,0,0,1,0,0,-0.381,-0.381,0.381,0.381,                     117P    276
-0.381000000000001,-0.381000000000001,0.381000000000001,             117P    277
0.381000000000001,1.,1.,1.,1.,-4.17133329356934,                     117P    278
85.0140747766031,35.,-11.7913332935693,85.0140747766031,35.,         117P    279
-4.17133329356934,92.6340747766031,35.,-11.7913332935693,            117P    280
92.6340747766031,35.,-0.381,0.381,-0.381000000000001,                117P    281
0.381000000000001;                                                   117P    282
128,1,8,1,2,0,1,0,0,1,-2.5,-2.5,2.5,2.5,-3.14159265358979,           119P    283
-3.14159265358979,-3.14159265358979,-1.5707963267949,                119P    284
-1.5707963267949,0.,0.,1.5707963267949,1.5707963267949,              119P    285
3.14159265358979,3.14159265358979,3.14159265358979,1.,1.,            119P    286
0.707106781186548,0.707106781186548,1.,1.,0.707106781186548,         119P    287
0.707106781186548,1.,1.,0.707106781186548,0.707106781186548,1.,      119P    288
1.,0.707106781186548,0.707106781186548,1.,1.,12.1626665871387,       119P    289
75.,55.,12.1626665871387,75.,35.,12.1626665871387,71.2,55.,          119P    290
12.1626665871387,71.2,35.,15.9626665871387,71.2,55.,                 119P    291
15.9626665871387,71.2,35.,19.7626665871387,71.2,55.,                 119P    292
19.7626665871387,71.2,35.,19.7626665871387,75.,55.,                  119P    293
19.7626665871387,75.,35.,19.7626665871387,78.8,55.,                  119P    294
19.7626665871387,78.8,35.,15.9626665871387,78.8,55.,                 119P    295
15.9626665871387,78.8,35.,12.1626665871387,78.8,55.,                 119P    296
12.1626665871387,78.8,35.,12.1626665871387,75.,55.,                  119P    297
12.1626665871387,75.,35.,-2.5,2.5,-3.14159265358979,                 119P    298
3.14159265358979;                                                    119P    299
128,1,1,1,1,0,0,1,0,0,-0.381,-0.381,0.381,0.381,-0.381,-0.381,       121P    300
0.381,0.381,1.,1.,1.,1.,19.7726665871387,71.19,35.,                  121P    301
12.1526665871387,71.19,35.,19.7726665871387,78.81,35.,               121P    302
12.1526665871387,78.81,35.,-0.381,0.381,-0.381,0.381;                121P    303
128,1,1,1,1,0,0,1,0,0,-3.91278664917051,-3.91278664917051,           123P    304
0.720253331742774,0.720253331742774,-2.31651999045664,               123P    305
-2.31651999045664,2.31651999045664,2.31651999045664,1.,1.,1.,1.,     123P    306
-23.1651999045664,51.8348000954336,60.,23.1651999045664,             123P    307
51.8348000954336,60.,-23.1651999045664,98.1651999045664,60.,         123P    308
23.1651999045664,98.1651999045664,60.,-3.91278664917051,             123P    309
0.720253331742774,-2.31651999045664,2.31651999045664;                123P    310
502,14,2.28035085019827,77.1,56.,-2.28035085019827,77.1,56.,         125P    311
2.28035085019827,77.1,60.,-2.28035085019827,77.1,60.,                125P    312
23.1551999045664,75.,60.,-23.1551999045664,75.,60.,                  125P    313
-23.1551999045664,75.,55.,23.1551999045664,75.,55.,                  125P    314
-11.7813332935693,61.1759252233969,55.,-11.7813332935693,            125P    315
88.8240747766031,55.,12.1626665871387,75.,55.,-11.7813332935693,     125P    316
61.1759252233969,35.,-11.7813332935693,88.8240747766031,35.,         125P    317
12.1626665871387,75.,35.;                                            125P    318
504,20,61,125,1,125,2,63,125,3,125,1,65,125,3,125,4,67,125,2,        127P    319
125,4,69,125,1,125,2,71,125,3,125,4,73,125,5,125,6,75,125,6,125,     127P    320
5,77,125,6,125,7,79,125,8,125,7,81,125,7,125,8,83,125,9,125,9,       127P    321
85,125,10,125,10,87,125,11,125,11,89,125,9,125,12,91,125,12,125,     127P    322
12,93,125,10,125,13,95,125,13,125,13,97,125,11,125,14,99,125,14,     127P    323
125,14;                                                              127P    324
406,1,6HAxle 2;                                                      129P    325
314,62.7450980392157,62.7450980392157,62.7450980392157,13HSteel      131P    326
- Satin;                                                             131P    327
S      1G      2D    132P    327                                        T      1
