                                                                        S      1
,,7Hout_rod,7Hout_rod,7Hunknown,7Hunknown,32,38,7,99,15,,1.,2,2HMM,1,   G      1
0.08,15H20230720.195755,0.01,10000.,7Hunknown,7Hunknown,11,0,;          G      2
     186       1                                                00000000D      1
     186             -85       1       0                               0D      2
     514       2                                                00010000D      3
     514                       1       1                               0D      4
     510       3                                                00010000D      5
     510             -85       1       1                               0D      6
     510       4                                                00010000D      7
     510             -85       1       1                               0D      8
     510       5                                                00010000D      9
     510             -85       1       1                               0D     10
     510       6                                                00010000D     11
     510             -85       1       1                               0D     12
     510       7                                                00010000D     13
     510             -85       1       1                               0D     14
     510       8                                                00010000D     15
     510             -85       1       1                               0D     16
     510       9                                                00010000D     17
     510             -85       1       1                               0D     18
     510      10                                                00010000D     19
     510             -85       1       1                               0D     20
     508      11                                                00010000D     21
     508                       1       1                               0D     22
     508      12                                                00010000D     23
     508                       1       1                               0D     24
     508      13                                                00010000D     25
     508                       1       1                               0D     26
     508      14                                                00010000D     27
     508                       1       1                               0D     28
     508      15                                                00010000D     29
     508                       1       1                               0D     30
     508      16                                                00010000D     31
     508                       1       1                               0D     32
     508      17                                                00010000D     33
     508                       1       1                               0D     34
     508      18                                                00010000D     35
     508                       1       1                               0D     36
     508      19                                                00010000D     37
     508                       1       1                               0D     38
     508      20                                                00010000D     39
     508                       1       1                               0D     40
     126      21                                                00010000D     41
     126       0               9       0                               0D     42
     126      30                                                00010000D     43
     126       0               5       0                               0D     44
     126      35                                                00010000D     45
     126       0               9       0                               0D     46
     126      44                                                00010000D     47
     126       0               9       0                               0D     48
     126      53                                                00010000D     49
     126       0               3       0                               0D     50
     126      56                                                00010000D     51
     126       0               9       0                               0D     52
     126      65                                                00010000D     53
     126       0               9       0                               0D     54
     126      74                                                00010000D     55
     126       0               9       0                               0D     56
     126      83                                                00010000D     57
     126       0               2       0                               0D     58
     126      85                                                00010000D     59
     126       0               2       0                               0D     60
     126      87                                                00010000D     61
     126       0               9       0                               0D     62
     128      96                                                00010000D     63
     128       0     -85      26       0                               0D     64
     128     122                                                00010000D     65
     128       0     -85      14       0                               0D     66
     128     136                                                00010000D     67
     128       0     -85       3       0                               0D     68
     128     139                                                00010000D     69
     128       0     -85       3       0                               0D     70
     128     142                                                00010000D     71
     128       0     -85       3       0                               0D     72
     128     145                                                00010000D     73
     128       0     -85      12       0                               0D     74
     128     157                                                00010000D     75
     128       0     -85      12       0                               0D     76
     128     169                                                00010000D     77
     128       0     -85       3       0                               0D     78
     502     172                                                00010000D     79
     502                       4       1                               0D     80
     504     176                                                00010001D     81
     504                       3       1                               0D     82
     406     179                                                00000000D     83
     406                       1      15                               0D     84
     314     180                                                00000200D     85
     314                       2       0                               0D     86
186,3,1,0,0,1,83;                                                      1P      1
514,8,5,1,7,1,9,1,11,1,13,1,15,1,17,1,19,1;                            3P      2
510,63,1,1,21;                                                         5P      3
510,65,1,1,23;                                                         7P      4
510,67,2,1,25,27;                                                      9P      5
510,69,1,1,29;                                                        11P      6
510,71,2,1,31,33;                                                     13P      7
510,73,1,1,35;                                                        15P      8
510,75,1,1,37;                                                        17P      9
510,77,1,1,39;                                                        19P     10
508,4,0,81,1,1,0,0,81,2,1,0,0,81,3,1,0,0,81,2,0,0;                    21P     11
508,4,0,81,4,0,0,0,81,5,1,0,0,81,1,0,0,0,81,5,0,0;                    23P     12
508,1,0,81,6,1,0;                                                     25P     13
508,1,0,81,3,0,0;                                                     27P     14
508,1,0,81,4,1,0;                                                     29P     15
508,1,0,81,7,0,0;                                                     31P     16
508,1,0,81,8,1,0;                                                     33P     17
508,4,0,81,6,0,0,0,81,9,1,0,0,81,7,1,0,0,81,9,0,0;                    35P     18
508,4,0,81,8,0,0,0,81,10,1,0,0,81,11,1,0,0,81,10,0,0;                 37P     19
508,1,0,81,11,0,0;                                                    39P     20
126,8,2,0,1,0,0,-3.14159265358979,-3.14159265358979,                  41P     21
-3.14159265358979,-1.5707963267949,-1.5707963267949,0.,0.,            41P     22
1.5707963267949,1.5707963267949,3.14159265358979,                     41P     23
3.14159265358979,3.14159265358979,1.,0.70710678118655,1.,             41P     24
0.70710678118655,1.,0.70710678118655,1.,0.70710678118655,1.,          41P     25
-72.25,-3.36777869765523D-16,13.,-72.25,-2.75,13.,-75.,-2.75,         41P     26
13.,-77.75,-2.75,13.,-77.75,0.,13.,-77.75,2.75,13.,-75.,2.75,         41P     27
13.,-72.25,2.75,13.,-72.25,3.36777869765523D-16,13.,                  41P     28
-3.14159265358979,3.14159265358979,0.,0.,0.;                          41P     29
126,2,2,0,0,0,0,-3.14159265358979,-3.14159265358979,                  43P     30
-3.14159265358979,-1.57079632679489,-1.57079632679489,                43P     31
-1.57079632679489,1.,0.707106781186544,1.,-72.25,0.,13.,-72.25,       43P     32
0.,9.99999999999999,-69.25,0.,10.,-3.14159265358979,                  43P     33
-1.57079632679489,0.,0.,0.;                                           43P     34
126,8,2,0,1,0,0,-3.14159265358979,-3.14159265358979,                  45P     35
-3.14159265358979,-1.5707963267949,-1.5707963267949,0.,0.,            45P     36
1.5707963267949,1.5707963267949,3.14159265358979,                     45P     37
3.14159265358979,3.14159265358979,1.,0.707106781186547,1.,            45P     38
0.707106781186544,1.,0.707106781186544,1.,0.707106781186547,1.,       45P     39
-69.25,7.04171909509729D-16,10.,-69.25,5.75,10.,-75.,5.75,10.,        45P     40
-80.75,5.75,10.,-80.75,0.,10.,-80.75,-5.75,10.,-75.,-5.75,10.,        45P     41
-69.25,-5.75,10.,-69.25,-7.04171909509729D-16,10.,                    45P     42
-3.14159265358979,3.14159265358979,0.,0.,0.;                          45P     43
126,8,2,0,1,0,0,-3.14159265358979,-3.14159265358979,                  47P     44
-3.14159265358979,-1.5707963267949,-1.5707963267949,0.,0.,            47P     45
1.5707963267949,1.5707963267949,3.14159265358979,                     47P     46
3.14159265358979,3.14159265358979,1.,0.70710678118655,1.,             47P     47
0.70710678118655,1.,0.70710678118655,1.,0.70710678118655,1.,          47P     48
-72.25,3.36777869765523D-16,60.,-72.25,2.75,60.,-75.,2.75,60.,        47P     49
-77.75,2.75,60.,-77.75,0.,60.,-77.75,-2.75,60.,-75.,-2.75,60.,        47P     50
-72.25,-2.75,60.,-72.25,-3.36777869765523D-16,60.,                    47P     51
-3.14159265358979,3.14159265358979,0.,0.,0.;                          47P     52
126,1,1,0,0,1,0,-18.1818181818182,-18.1818181818182,                  49P     53
-1.09090909090909,-1.09090909090909,1.,1.,-72.25,0.,60.,-72.25,       49P     54
0.,13.,-18.1818181818182,-1.09090909090909,0.,0.,0.;                  49P     55
126,8,2,0,1,0,0,-3.14159265358979,-3.14159265358979,                  51P     56
-3.14159265358979,-1.5707963267949,-1.5707963267949,0.,0.,            51P     57
1.5707963267949,1.5707963267949,3.14159265358979,                     51P     58
3.14159265358979,3.14159265358979,1.,0.707106781186547,1.,            51P     59
0.707106781186551,1.,0.707106781186551,1.,0.707106781186547,1.,       51P     60
-67.5,9.18485099360515D-16,10.,-67.5,7.5,10.,-75.,7.5,10.,-82.5,      51P     61
7.5,10.,-82.5,0.,10.,-82.5,-7.5,10.,-75.,-7.5,10.,-67.5,-7.5,         51P     62
10.,-67.5,-9.18485099360515D-16,10.,-3.14159265358979,                51P     63
3.14159265358979,0.,0.,0.;                                            51P     64
126,8,2,0,1,0,0,-3.14159265358979,-3.14159265358979,                  53P     65
-3.14159265358979,-1.5707963267949,-1.5707963267949,0.,0.,            53P     66
1.5707963267949,1.5707963267949,3.14159265358979,                     53P     67
3.14159265358979,3.14159265358979,1.,0.707106781186547,1.,            53P     68
0.707106781186551,1.,0.707106781186551,1.,0.707106781186547,1.,       53P     69
-67.5,9.18485099360515D-16,5.,-67.5,7.5,5.,-75.,7.5,5.,-82.5,         53P     70
7.5,5.,-82.5,0.,5.,-82.5,-7.5,5.,-75.,-7.5,5.,-67.5,-7.5,5.,          53P     71
-67.5,-9.18485099360515D-16,5.,-3.14159265358979,                     53P     72
3.14159265358979,0.,0.,0.;                                            53P     73
126,8,2,0,1,0,0,-3.14159265358979,-3.14159265358979,                  55P     74
-3.14159265358979,-1.5707963267949,-1.5707963267949,0.,0.,            55P     75
1.5707963267949,1.5707963267949,3.14159265358979,                     55P     76
3.14159265358979,3.14159265358979,1.,0.707106781186544,1.,            55P     77
0.707106781186544,1.,0.707106781186544,1.,0.707106781186544,1.,       55P     78
-77.5,-3.06161699786838D-16,5.,-77.5,-2.5,5.,-75.,-2.5,5.,-72.5,      55P     79
-2.5,5.,-72.5,0.,5.,-72.5,2.5,5.,-75.,2.5,5.,-77.5,2.5,5.,-77.5,      55P     80
3.06161699786838D-16,5.,-3.14159265358979,3.14159265358979,0.,        55P     81
0.,0.;                                                                55P     82
126,1,1,0,0,1,0,-0.666666666666667,-0.666666666666667,0.,0.,1.,       57P     83
1.,-67.5,0.,10.,-67.5,0.,5.,-0.666666666666667,0.,0.,0.,0.;           57P     84
126,1,1,0,0,1,0,-2.,-2.,0.,0.,1.,1.,-77.5,0.,5.,-77.5,0.,0.,-2.,      59P     85
0.,0.,0.,0.;                                                          59P     86
126,8,2,0,1,0,0,-3.14159265358979,-3.14159265358979,                  61P     87
-3.14159265358979,-1.5707963267949,-1.5707963267949,0.,0.,            61P     88
1.5707963267949,1.5707963267949,3.14159265358979,                     61P     89
3.14159265358979,3.14159265358979,1.,0.707106781186544,1.,            61P     90
0.707106781186544,1.,0.707106781186544,1.,0.707106781186544,1.,       61P     91
-77.5,-3.06161699786838D-16,0.,-77.5,-2.5,0.,-75.,-2.5,0.,-72.5,      61P     92
-2.5,0.,-72.5,0.,0.,-72.5,2.5,0.,-75.,2.5,0.,-77.5,2.5,0.,-77.5,      61P     93
3.06161699786838D-16,0.,-3.14159265358979,3.14159265358979,0.,        61P     94
0.,0.;                                                                61P     95
128,2,8,2,2,0,1,0,0,1,1.57079632679489,1.57079632679489,              63P     96
1.57079632679489,3.14159265358979,3.14159265358979,                   63P     97
3.14159265358979,-3.14159265358979,-3.14159265358979,                 63P     98
-3.14159265358979,-1.5707963267949,-1.5707963267949,0.,0.,            63P     99
1.5707963267949,1.5707963267949,3.14159265358979,                     63P    100
3.14159265358979,3.14159265358979,1.,0.707106781186544,1.,            63P    101
0.707106781186548,0.499999999999998,0.707106781186548,1.,             63P    102
0.707106781186544,1.,0.707106781186548,0.499999999999998,             63P    103
0.707106781186548,1.,0.707106781186544,1.,0.707106781186548,          63P    104
0.499999999999998,0.707106781186548,1.,0.707106781186544,1.,          63P    105
0.707106781186548,0.499999999999998,0.707106781186548,1.,             63P    106
0.707106781186544,1.,-69.25,0.,10.,-72.25,0.,9.99999999999999,        63P    107
-72.25,0.,13.,-69.25,-5.75000000000001,10.,-72.25,                    63P    108
-2.75000000000001,9.99999999999999,-72.25,-2.75000000000001,13.,      63P    109
-75.,-5.75000000000001,10.,-75.,-2.75000000000001,                    63P    110
9.99999999999999,-75.,-2.75000000000001,13.,-80.75,                   63P    111
-5.75000000000001,10.,-77.75,-2.75000000000001,9.99999999999999,      63P    112
-77.75,-2.75000000000001,13.,-80.75,0.,10.,-77.75,0.,                 63P    113
9.99999999999999,-77.75,0.,13.,-80.75,5.75000000000001,10.,           63P    114
-77.75,2.75000000000001,9.99999999999999,-77.75,                      63P    115
2.75000000000001,13.,-75.,5.75000000000001,10.,-75.,                  63P    116
2.75000000000001,9.99999999999999,-75.,2.75000000000001,13.,          63P    117
-69.25,5.75000000000001,10.,-72.25,2.75000000000001,                  63P    118
9.99999999999999,-72.25,2.75000000000001,13.,-69.25,0.,10.,           63P    119
-72.25,0.,9.99999999999999,-72.25,0.,13.,1.57079632679489,            63P    120
3.14159265358979,-3.14159265358979,3.14159265358979;                  63P    121
128,1,8,1,2,0,1,0,0,1,1.09090909090909,1.09090909090909,              65P    122
18.1818181818182,18.1818181818182,-3.14159265358979,                  65P    123
-3.14159265358979,-3.14159265358979,-1.5707963267949,                 65P    124
-1.5707963267949,0.,0.,1.5707963267949,1.5707963267949,               65P    125
3.14159265358979,3.14159265358979,3.14159265358979,1.,1.,             65P    126
0.707106781186548,0.707106781186548,1.,1.,0.707106781186548,          65P    127
0.707106781186548,1.,1.,0.707106781186548,0.707106781186548,1.,       65P    128
1.,0.707106781186548,0.707106781186548,1.,1.,-72.25,0.,60.,           65P    129
-72.25,0.,13.,-72.25,2.75,60.,-72.25,2.75,13.,-75.,2.75,60.,          65P    130
-75.,2.75,13.,-77.75,2.75,60.,-77.75,2.75,13.,-77.75,0.,60.,          65P    131
-77.75,0.,13.,-77.75,-2.75,60.,-77.75,-2.75,13.,-75.,-2.75,60.,       65P    132
-75.,-2.75,13.,-72.25,-2.75,60.,-72.25,-2.75,13.,-72.25,0.,60.,       65P    133
-72.25,0.,13.,1.09090909090909,18.1818181818182,                      65P    134
-3.14159265358979,3.14159265358979;                                   65P    135
128,1,1,1,1,0,0,1,0,0,-0.751,-0.751,0.751,0.751,-0.751,-0.751,        67P    136
0.751,0.751,1.,1.,1.,1.,-67.49,7.51,10.,-82.51,7.51,10.,-67.49,       67P    137
-7.51,10.,-82.51,-7.51,10.,-0.751,0.751,-0.751,0.751;                 67P    138
128,1,1,1,1,0,0,1,0,0,-0.276,-0.276,0.276,0.276,-0.276,-0.276,        69P    139
0.276,0.276,1.,1.,1.,1.,-72.24,2.76,60.,-77.76,2.76,60.,-72.24,       69P    140
-2.76,60.,-77.76,-2.76,60.,-0.276,0.276,-0.276,0.276;                 69P    141
128,1,1,1,1,0,0,1,0,0,-0.751,-0.751,0.751,0.751,-0.751,-0.751,        71P    142
0.751,0.751,1.,1.,1.,1.,-82.51,7.51,5.,-67.49,7.51,5.,-82.51,         71P    143
-7.51,5.,-67.49,-7.51,5.,-0.751,0.751,-0.751,0.751;                   71P    144
128,1,8,1,2,0,1,0,0,1,0.,0.,0.666666666666667,0.666666666666667,      73P    145
-3.14159265358979,-3.14159265358979,-3.14159265358979,                73P    146
-1.5707963267949,-1.5707963267949,0.,0.,1.5707963267949,              73P    147
1.5707963267949,3.14159265358979,3.14159265358979,                    73P    148
3.14159265358979,1.,1.,0.707106781186548,0.707106781186548,1.,        73P    149
1.,0.707106781186548,0.707106781186548,1.,1.,0.707106781186548,       73P    150
0.707106781186548,1.,1.,0.707106781186548,0.707106781186548,1.,       73P    151
1.,-67.5,0.,10.,-67.5,0.,5.,-67.5,7.5,10.,-67.5,7.5,5.,-75.,7.5,      73P    152
10.,-75.,7.5,5.,-82.5,7.5,10.,-82.5,7.5,5.,-82.5,0.,10.,-82.5,        73P    153
0.,5.,-82.5,-7.5,10.,-82.5,-7.5,5.,-75.,-7.5,10.,-75.,-7.5,5.,        73P    154
-67.5,-7.5,10.,-67.5,-7.5,5.,-67.5,0.,10.,-67.5,0.,5.,0.,             73P    155
0.666666666666667,-3.14159265358979,3.14159265358979;                 73P    156
128,1,8,1,2,0,1,0,0,1,0.,0.,2.,2.,-3.14159265358979,                  75P    157
-3.14159265358979,-3.14159265358979,-1.5707963267949,                 75P    158
-1.5707963267949,0.,0.,1.5707963267949,1.5707963267949,               75P    159
3.14159265358979,3.14159265358979,3.14159265358979,1.,1.,             75P    160
0.707106781186548,0.707106781186548,1.,1.,0.707106781186548,          75P    161
0.707106781186548,1.,1.,0.707106781186548,0.707106781186548,1.,       75P    162
1.,0.707106781186548,0.707106781186548,1.,1.,-77.5,0.,5.,-77.5,       75P    163
0.,0.,-77.5,-2.5,5.,-77.5,-2.5,0.,-75.,-2.5,5.,-75.,-2.5,0.,          75P    164
-72.5,-2.5,5.,-72.5,-2.5,0.,-72.5,0.,5.,-72.5,0.,0.,-72.5,2.5,        75P    165
5.,-72.5,2.5,0.,-75.,2.5,5.,-75.,2.5,0.,-77.5,2.5,5.,-77.5,2.5,       75P    166
0.,-77.5,0.,5.,-77.5,0.,0.,0.,2.,-3.14159265358979,                   75P    167
3.14159265358979;                                                     75P    168
128,1,1,1,1,0,0,1,0,0,-0.251,-0.251,0.251,0.251,-0.251,-0.251,        77P    169
0.251,0.251,1.,1.,1.,1.,-72.49,-2.51,0.,-77.51,-2.51,0.,-72.49,       77P    170
2.51,0.,-77.51,2.51,0.,-0.251,0.251,-0.251,0.251;                     77P    171
502,7,-72.25,-3.36777869765523D-16,13.,-69.25,                        79P    172
7.04171909509729D-16,10.,-72.25,3.36777869765523D-16,60.,-67.5,       79P    173
9.18485099360515D-16,10.,-67.5,9.18485099360515D-16,5.,-77.5,         79P    174
-3.06161699786838D-16,5.,-77.5,-3.06161699786838D-16,0.;              79P    175
504,11,41,79,1,79,1,43,79,1,79,2,45,79,2,79,2,47,79,3,79,3,49,        81P    176
79,3,79,1,51,79,4,79,4,53,79,5,79,5,55,79,6,79,6,57,79,4,79,5,        81P    177
59,79,6,79,7,61,79,7,79,7;                                            81P    178
406,1,5HBody1;                                                        83P    179
314,62.7450980392157,62.7450980392157,62.7450980392157,13HSteel       85P    180
- Satin;                                                              85P    181
S      1G      2D     86P    181                                        T      1
